<?xml version="1.0" encoding="utf-8"?>
<!-- Generator: Adobe Illustrator 16.0.3, SVG Export Plug-In . SVG Version: 6.00 Build 0)  -->
<!DOCTYPE svg PUBLIC "-//W3C//DTD SVG 1.1//EN" "http://www.w3.org/Graphics/SVG/1.1/DTD/svg11.dtd">
<svg version="1.1" id="Capa_1" xmlns="http://www.w3.org/2000/svg" xmlns:xlink="http://www.w3.org/1999/xlink" x="0px" y="0px"
	 width="841.89px" height="328.5px" viewBox="0 0 841.89 328.5" enable-background="new 0 0 841.89 328.5" xml:space="preserve">
<g>
	<path fill-rule="evenodd" clip-rule="evenodd" d="M256.064,191.188c5.727,3.193,15.732,0.069,30.014-9.374
		c9.418-6.178,18.629-13.455,27.564-21.833c4.451-4.225,7.557-5.289,9.314-3.125c1.139,1.527-0.138,4.403-3.829,8.628
		c-27.702,32.165-51.368,45.728-70.963,40.686c-3.553-0.923-6.417-3.267-8.59-7.102c-2.104-3.514-3.45-8.058-4.037-13.598
		c-1.207-11.572,0.691-23.36,5.762-35.252c3.035-7.171,7.417-14.592,13.143-22.261c5.865-7.916,11.798-14.236,17.872-18.958
		c6.761-5.324,12.522-7.739,17.284-7.277c5.45,0.568,9.21,4.934,11.212,13.101c3.45,14.591-3.037,26.911-19.492,37.028
		c-8.211,5.077-16.767,8.698-25.667,10.829c-1.76,5.68-2.725,11.29-2.932,16.863C252.58,185.969,253.685,189.874,256.064,191.188
		L256.064,191.188z M287.769,121.922c-2.621-3.196-8.176,1.064-16.664,12.779c-4.243,5.824-8.209,11.966-11.936,18.427
		c11.005-2.592,19.422-7.49,25.287-14.804c2.553-3.018,4.105-6.036,4.658-9.019C289.701,126.324,289.253,123.838,287.769,121.922z"
		/>
	<path fill-rule="evenodd" clip-rule="evenodd" d="M175.165,147.591c15.732-43.953,31.808-77.609,48.333-100.969
		c16.11-22.828,29.737-31.918,40.916-27.267c10.591,4.367,14.006,13.562,10.211,27.55c-3.484,12.78-13.352,30.851-29.6,54.319
		c-5.797,8.236-15.215,19.313-28.221,33.159c-15.559,16.58-25.598,27.657-30.117,33.195c-6.245,7.632-12.454,18.814-18.595,33.584
		c17.181-15.124,30.738-23.894,40.64-26.308c14.766-3.691,26.254-4.294,34.463-1.881c1.968,0.782,3.036,1.635,3.244,2.592
		c0.415,2.023-3.623,3.585-12.041,4.687c-15.559,2.094-30.564,7.562-45.054,16.437c-15.904,9.728-28.876,26.06-38.915,49.1
		c-15.318,50.875-25.909,76.651-31.843,77.288c-5.381,0.533-9.039-0.779-10.936-3.974c-2.554-4.439-2.449-12.817,0.31-25.173
		c4.175-18.141,16.283-40.259,36.292-66.354C152.879,207.907,163.194,181.246,175.165,147.591L175.165,147.591z M189.345,143.01
		c38.879-42.425,58.613-72.46,59.199-90.069c0.208-6.923-2.277-8.023-7.451-3.336c-4.658,4.259-10.728,12.317-18.216,24.246
		C205.767,101.331,194.588,124.372,189.345,143.01z"/>
	<path fill-rule="evenodd" clip-rule="evenodd" d="M109.583,142.621c-8.935,20.661-13.108,34.329-12.522,41.076
		c0.621,6.566,2.415,11.501,5.451,14.767c2.898,2.982,7.762,5.326,14.559,7.064c20.285,5.078,37.361-0.353,51.264-16.223
		c7.867-7.42,12.455-13.527,13.731-18.319c0.414-1.704,0.275-2.875-0.414-3.407c-0.726-0.568-1.691-0.356-2.829,0.604
		c-11.524,9.656-20.009,16.045-25.46,19.241c-8.764,5.006-17.698,6.605-26.771,4.794c-7.486-1.812-11.454-6.249-11.937-13.315
		c-0.276-4.792,1.208-11.466,4.45-20.059c2.001-5.361,6.589-14.023,13.73-26.022c0.965-1.669,2.277-3.622,3.967-5.929
		c1.415-1.846,2.278-3.196,2.623-3.941c0.448-1.243,0.448-2.45,0-3.657c-0.553-1.314-1.76-2.947-3.658-4.863
		c-4.45-4.581-8.142-5.682-11.108-3.232c-1.692,1.386-3.933,5.148-6.762,11.325c-0.621,1.314-2.001,4.616-4.141,9.906
		C111.378,138.324,109.998,141.696,109.583,142.621z"/>
	<path fill-rule="evenodd" clip-rule="evenodd" d="M29.961,126.288c17.456-38.484,29.875-64.044,37.293-76.683
		c8.003-13.634,14.834-23.574,20.423-29.716C98.579,7.604,108.584,3.345,117.691,7.072c10.419,4.295,13.765,13.383,10.005,27.266
		c-3.449,12.532-13.18,30.355-29.22,53.466c-13.283,19.135-34.74,42-64.375,68.625c-1.968,1.74-4.278,6.461-6.969,14.166
		c-3.036,8.663-3.449,14.308-1.208,16.934c3.209,3.834,7.865,5.716,13.938,5.716c6.279,0.07,13.247-1.917,20.906-6.035
		c15.11-7.953,26.909-15.728,35.395-23.29c1.416-1.314,2.83-2.415,4.244-3.337c2.83-1.704,4.313-1.42,4.452,0.958
		c0.206,2.272,0.033,3.941-0.518,4.971c-0.724,1.348-2.588,3.053-5.554,5.219c-20.01,14.484-31.911,22.862-35.672,25.064
		c-19.009,11.04-35.533,13.277-49.541,6.744c-3.897-1.774-6.002-6.035-6.244-12.78c-0.207-5.184,0.518-10.262,2.208-15.195
		C13.056,165.021,19.854,148.619,29.961,126.288L29.961,126.288z M42.174,129.91c9.833-10.615,19.734-22.295,29.634-35.04
		c19.733-25.599,29.808-43.775,30.221-54.604c0.208-6.994-1.724-9.124-5.761-6.354c-3.726,2.556-8.832,8.875-15.385,18.923
		C66.944,74.491,54.042,100.159,42.174,129.91z"/>
	<g>
		<path fill-rule="evenodd" clip-rule="evenodd" fill="#FF0000" d="M142.044,61.883c4.34,0.214,7.358,3.471,9.02,9.761l0.073,0.59
			l0.22,0.039c1.932-3.409,4.999-5.861,9.205-7.334c1.209-0.414,2.493-0.591,3.824-0.516h0.466c4.058,0.228,7.15,3.245,9.277,9.07
			c0.377,1.422,0.537,2.754,0.464,4.013c-0.256,5.207-3.361,10.353-9.314,15.447c-2.261,1.571-5.976,3.535-11.135,5.886
			l-5.866,3.069l-0.831,0.693c-0.588-1.321-0.686-2.303-0.282-2.945c-1.406-2.955-3.165-5.157-5.267-6.641
			c-4.366-3.975-7.824-7.71-10.378-11.196c-1.456-2.289-2.127-4.527-2.006-6.741c0.184-4.102,2.188-7.698,6.015-10.768
			C137.704,62.763,139.867,61.958,142.044,61.883z"/>
		<g>
			<path fill-rule="evenodd" clip-rule="evenodd" fill="#FF0000" d="M792.935,162.784c2.035,9.019,1.862,17.22-0.519,24.639
				c-2,6.391-5.417,11.432-10.177,15.088c-4.449,3.48-9.04,5.006-13.767,4.58c-4.898-0.356-8.588-2.697-11.004-7.065
				c-5.45-9.729-3.968-19.952,4.45-30.675c4.243-5.43,9.003-9.834,14.352-13.241c-1.415-4.012-3.519-7.988-6.277-11.928
				c-0.656-0.995-1.831-2.558-3.451-4.687c-1.414-1.952-2.483-3.443-3.209-4.473c-4.727-7.066-6.003-15.516-3.863-25.277
				c1.241-5.752,4.104-10.261,8.591-13.528c3.863-2.698,8.623-4.295,14.35-4.793c4.934-0.461,9.766-0.105,14.456,1.136
				c4.52,1.207,7.659,2.805,9.418,4.794c3.174,3.55,4.106,7.739,2.83,12.604c-1.139,4.508-3.209,6.958-6.177,7.383
				c-3.553,0.391-7.347-2.592-11.314-8.946c0.068,0.142-0.483-1.065-1.621-3.657c-0.863-2.06-1.795-3.515-2.726-4.367
				c-3.036-2.771-6.487-0.106-10.42,8.024c-3.898,8.022-3.379,17.573,1.519,28.578c2.45,5.504,5.279,10.188,8.486,14.06
				c5.59-1.883,11.729-2.841,18.388-2.912c13.421-0.213,22.978,4.225,28.635,13.313c1.864,2.202,2.174,3.975,0.896,5.29
				c-0.412,0.426-0.725,0.639-1,0.639c-0.205,0-0.448-0.177-0.726-0.533c-1.136-1.383-2.275-2.378-3.413-3.017
				c-8.764-5.041-17.525-6.745-26.289-5.076C799.039,159.555,795.555,160.903,792.935,162.784L792.935,162.784z M784.24,169.033
				c-3.968,2.983-7.59,6.318-10.798,9.977c-6.557,7.278-7.97,12.497-4.245,15.62c4.486,3.872,8.349,0.748,11.523-9.371
				C782.344,180.181,783.516,174.785,784.24,169.033z"/>
			<path fill-rule="evenodd" clip-rule="evenodd" fill="#FF0000" d="M675.501,164.453c-3.864,17.822-2.346,29.468,4.518,34.933
				c15.664,12.499,35.916,10.013,60.856-7.383c11.522-8.023,18.044-13.385,19.493-16.011c0.827-1.456,0.793-2.593-0.071-3.444
				c-0.825-0.746-1.825-0.782-3.035-0.107c-13.143,7.705-23.977,13.171-32.461,16.331c-8.419,3.266-16.216,3.693-23.427,1.278
				c-7.037-2.449-10.692-8.131-11.039-17.077c-0.276-6.567,1.415-15.939,5.072-28.082c5.243-17.539,10.107-31.1,14.558-40.65
				c2.414-1.42,7.036-2.734,13.835-3.976c7.141-1.244,13.557-0.639,19.318,1.773c5.899,2.485,7.59,5.752,5.036,9.765
				c1.482,1.739,3.692-0.391,6.659-6.426c0.551-1.172,2.139-4.97,4.761-11.361c0.932-2.414,1-4.331,0.208-5.715
				c-0.347-0.605-0.829-1.03-1.416-1.244c-10.523-3.657-25.356-1.739-44.469,5.822c3.622-8.235,7.452-16.223,11.42-23.928
				c2.757-5.468,6.141-11.147,10.107-17.041c3.38-5.077,5.692-9.088,6.969-12.071c1.759-4.154,0.139-10.331-4.865-18.496
				c-1.999-3.337-3.932-5.361-5.761-6.035c-2.139-0.853-3.693,0.318-4.622,3.407c-0.621,1.881-5.071,14.272-13.351,37.135
				c-3.105,8.343-8.452,22.686-16.077,43.063c-8.762,4.296-14.42,7.669-16.974,10.083c-0.896,1.209-1.034,2.309-0.519,3.338
				c0.623,1.171,1.725,1.279,3.349,0.319c6.588-3.692,10.591-5.645,11.937-5.928c-6.693,15.337-12.523,31.348-17.491,48.034
				L675.501,164.453z"/>
			<path fill-rule="evenodd" clip-rule="evenodd" fill="#FF0000" d="M609.265,105.059c0.757,0,2.206-0.071,4.345-0.213
				c1.691-0.071,2.967-0.071,3.829,0c2.45,0.284,3.521,1.525,3.242,3.762c-2.897,26.876-6.829,48-11.831,63.337
				c5.727-12.071,10.106-21.052,13.143-26.946c6.072-11.929,11.627-20.771,16.699-26.521c4.967-5.75,10.693-9.905,17.179-12.498
				c6.003-2.414,11.143-2.59,15.456-0.496c3.692,1.846,6.037,4.898,6.967,9.159c2.313,9.975,0.969,16.331-3.932,19.135
				c-2.621,1.456-5.208,0.995-7.693-1.349c-1.138-1.136-2.895-3.584-5.242-7.42c-0.207-0.319-0.966-1.775-2.243-4.367
				c-1.069-1.987-1.966-3.478-2.727-4.473c-2.415-3.089-4.897-3.16-7.485-0.177c-3.346,3.799-9.418,14.201-18.181,31.207
				c-3.036,5.963-9.108,19.562-18.182,40.863c-5.208,12.212-9.245,18.53-12.142,19.028c-3.245,0.497-6.9-0.461-11.007-2.803
				c-2.759-1.528-4.069-3.729-3.934-6.569c0.07-1.526,1.002-5.111,2.83-10.792c4.968-15.335,8.627-31.952,10.901-49.846
				c2.347-18.85,3.554-28.33,3.554-28.365C604.882,106.265,607.058,105.059,609.265,105.059z"/>
			<path fill-rule="evenodd" clip-rule="evenodd" fill="#FF0000" d="M504.87,147.803c-4.588,6.249-8.314,13.207-11.213,20.911
				c-5.691,15.407-4.104,26.804,4.727,34.224c5.21,4.295,12.144,5.715,20.836,4.26c8.143-1.242,16.354-4.688,24.668-10.296
				c8.418-5.681,14.973-12.249,19.698-19.668c5.176-8.166,7.142-15.976,5.865-23.396c-2.174-13.029-6.036-20.84-11.627-23.396
				c-2.757-1.243-5.312-1.207-7.692,0.106c23.183,0.887,37.603,1.349,43.261,1.349c6.348,0,11.939-0.888,16.802-2.593
				c2.622-0.993,3.76-1.953,3.415-2.91c-0.413-1.279-2.863-2.52-7.383-3.764c-7.554-2.058-19.354-2.946-35.464-2.591
				c-20.01,0.533-31.188,0.71-33.568,0.533c-12.177-0.924-19.837-1.634-22.94-2.202c-5.107-1.102-8.486-2.769-10.109-5.005
				c-2.139-2.983-5.14-4.793-9.005-5.503c-4.035-0.818-6.657,0.318-7.863,3.444c-1.831,4.721-2.174,9.23-1.001,13.526
				c1.482,5.538,5.451,7.882,11.901,7.065c8.038-1.1,15.077-1.244,21.147-0.426c8.901,1.03,15.492,2.946,19.805,5.715
				c5.657,3.764,9.796,7.846,12.418,12.284c3.521,5.751,4.104,11.645,1.826,17.68c-2.688,6.922-7.863,12.853-15.454,17.786
				c-7.968,5.078-15.075,6.426-21.32,4.048c-6.623-2.414-9.796-5.681-9.522-9.763c0.276-3.408,2.761-6.995,7.487-10.83
				c5.313-4.153,8.659-7.491,10.005-9.976c1.967-3.764,1.207-7.739-2.208-11.964c-3.313-4.012-6.866-5.326-10.625-3.94
				C509.32,143.259,507.01,145.033,504.87,147.803z"/>
			<path fill-rule="evenodd" clip-rule="evenodd" fill="#FF0000" d="M396.199,154.477c-4.518,7.421-7.452,15.018-8.865,22.863
				c-2.174,11.788,0.689,19.74,8.59,23.822c13.385,6.994,31.809,7.917,55.266,2.699c18.94-4.154,33.913-9.979,44.884-17.469
				c3.553-2.484,5.381-4.685,5.45-6.568c0.068-1.773-1.311-2.697-4.14-2.697c0.138,0-2.207,1.456-7.071,4.367
				c-6.144,3.55-14.457,6.709-24.978,9.479c-13.522,3.621-25.599,4.828-36.188,3.656c-12.248-1.419-18.941-5.857-20.114-13.311
				c-0.862-5.291,1.932-13.563,8.418-24.889c5.035-8.946,10.729-17.217,17.077-24.852c2.553-3.053,5.589-5.36,9.072-6.959
				c4.243-1.951,7.14-1.561,8.693,1.137c1.035,1.597,1.277,4.438,0.83,8.52c-0.484,3.976-0.382,6.426,0.309,7.385
				c0.864,1.243,3.485,1.349,7.865,0.32c3.829-0.817,6.555-1.777,8.176-2.807c2.451-1.455,3.693-5.183,3.762-11.111
				c0-5.93-1.103-9.976-3.243-12.177c-2.416-2.379-6.554-3.479-12.419-3.338c-4.797,0.214-9.107,1.03-12.938,2.485
				c-11.316,4.226-19.836,8.485-25.494,12.71C411.068,133.709,403.41,142.621,396.199,154.477z"/>
			<path fill-rule="evenodd" clip-rule="evenodd" fill="#FF0000" d="M352.455,162.784c2.036,9.019,1.862,17.22-0.518,24.639
				c-2.001,6.391-5.417,11.432-10.178,15.088c-4.45,3.48-9.039,5.006-13.765,4.58c-4.899-0.356-8.591-2.697-11.006-7.065
				c-5.451-9.729-3.968-19.952,4.45-30.675c4.244-5.43,9.005-9.834,14.351-13.241c-1.413-4.012-3.518-7.988-6.278-11.928
				c-0.655-0.995-1.829-2.558-3.45-4.687c-1.414-1.952-2.484-3.443-3.209-4.473c-4.726-7.066-6.002-15.516-3.863-25.277
				c1.242-5.752,4.105-10.261,8.591-13.528c3.863-2.698,8.623-4.295,14.351-4.793c4.933-0.461,9.764-0.105,14.456,1.136
				c4.518,1.207,7.658,2.805,9.417,4.794c3.174,3.55,4.106,7.739,2.83,12.604c-1.139,4.508-3.209,6.958-6.175,7.383
				c-3.554,0.391-7.348-2.592-11.316-8.946c0.069,0.142-0.483-1.065-1.621-3.657c-0.863-2.06-1.794-3.515-2.727-4.367
				c-3.037-2.771-6.486-0.106-10.417,8.024c-3.899,8.022-3.382,17.573,1.517,28.578c2.45,5.504,5.279,10.188,8.487,14.06
				c5.589-1.883,11.729-2.841,18.388-2.912c13.421-0.213,22.978,4.225,28.634,13.313c1.863,2.202,2.174,3.975,0.896,5.29
				c-0.414,0.426-0.725,0.639-1,0.639c-0.207,0-0.449-0.177-0.726-0.533c-1.137-1.383-2.275-2.378-3.414-3.017
				c-8.763-5.041-17.526-6.745-26.29-5.076C358.561,159.555,355.076,160.903,352.455,162.784L352.455,162.784z M343.759,169.033
				c-3.967,2.983-7.588,6.318-10.796,9.977c-6.556,7.278-7.97,12.497-4.245,15.62c4.486,3.872,8.349,0.748,11.523-9.371
				C341.864,180.181,343.036,174.785,343.759,169.033z"/>
		</g>
	</g>
</g>
</svg>
